<?xml version="1.0" encoding="utf-8"?>
<!-- Generator: Adobe Illustrator 19.0.0, SVG Export Plug-In . SVG Version: 6.00 Build 0)  -->
<svg version="1.1" id="Layer_1" xmlns="http://www.w3.org/2000/svg" xmlns:xlink="http://www.w3.org/1999/xlink" x="0px" y="0px"
	 width="414px" height="125.1px" viewBox="261 -25.1 414 125.1" style="enable-background:new 261 -25.1 414 125.1;"
	 xml:space="preserve">
<style type="text/css">
	.st0{fill:#FFFFFF;}
	.st1{clip-path:url(#SVGID_2_);}
	.st2{fill:#EC1C24;}
</style>
<g>
	<g>
		<g>
			<path class="st0" d="M292.5,80.2c0,2.7-0.8,4.9-2.5,6.4s-3.9,2.3-6.7,2.3h-12.6v-30h12.1c2.9,0,5.2,0.8,6.8,2.3s2.5,3.6,2.5,6.2
				c0,1.5-0.4,2.8-1.2,3.9c-0.8,1.1-1.6,1.8-2.6,2.3C291.1,74.8,292.5,77,292.5,80.2z M285.2,70c0.7-0.6,1-1.5,1-2.5s-0.3-1.9-1-2.5
				c-0.7-0.6-1.6-0.9-2.9-0.9h-5.7V71h5.7C283.5,71,284.5,70.7,285.2,70z M285.6,82.6c0.7-0.7,1-1.6,1-2.7s-0.3-1.9-1-2.6
				c-0.7-0.7-1.6-1-2.9-1h-6.1v7.4h6.1C283.9,83.6,284.9,83.3,285.6,82.6z"/>
			<path class="st0" d="M317.9,88.9h-19.4v-30h5.9v24.8H318v5.2H317.9z"/>
			<path class="st0" d="M345.9,88.9h-6.1l-1.8-5.3h-10.7l-1.8,5.3h-6.1l10.9-30h4.6L345.9,88.9z M336.5,78.6l-3.7-10.9L329,78.6
				H336.5z"/>
			<path class="st0" d="M406.1,88.9h-6.8l-7.7-13.7l-3.9,4.6v9h-5.9v-30h5.9v13.1l10.6-13.1h7.1l-10,11.9L406.1,88.9z"/>
			<path class="st0" d="M439.4,64.1h-13.9v7.4h11.9v5.2h-11.9v12.2h-5.9v-30h19.8L439.4,64.1L439.4,64.1z"/>
			<path class="st0" d="M467.2,88.9h-6.8l-5.9-12h-4.2v12h-5.9v-30h11.8c3,0,5.3,0.9,7.1,2.7c1.8,1.8,2.6,4,2.6,6.5
				c0,2-0.5,3.7-1.6,5c-1,1.3-2.3,2.3-3.9,2.9L467.2,88.9z M459,70.9c0.8-0.7,1.2-1.7,1.2-2.9c0-1.2-0.4-2.1-1.2-2.9
				c-0.8-0.7-1.8-1.1-3.1-1.1h-5.5v7.9h5.5C457.2,72,458.2,71.6,459,70.9z"/>
			<path class="st0" d="M478,88.9h-5.9v-30h5.9V88.9z"/>
			<path class="st0" d="M506.8,72.3c0,0.8,0,1.3,0,1.5s0,0.7,0,1.5s0,1.3,0,1.5s0,0.7,0,1.4c0,0.7-0.1,1.2-0.1,1.5
				c-0.1,0.3-0.1,0.7-0.2,1.3c-0.1,0.6-0.2,1.1-0.4,1.4c-0.2,0.4-0.3,0.8-0.5,1.2c-0.2,0.5-0.5,0.9-0.8,1.3s-0.6,0.8-1,1.1
				c-1.9,1.9-4.6,2.9-7.9,2.9H485v-30h10.8c3.4,0,6,1,7.9,2.9c0.4,0.4,0.7,0.7,1,1.1s0.5,0.8,0.8,1.3s0.4,0.9,0.5,1.2
				c0.2,0.3,0.3,0.8,0.4,1.4s0.2,1,0.2,1.3c0.1,0.3,0.1,0.8,0.1,1.5s0,1.2,0,1.4C506.8,71,506.8,71.5,506.8,72.3z M500.9,73.7
				c0-2.4-0.1-4.1-0.2-5.2c-0.2-1.1-0.5-1.9-1-2.6c-1-1.2-2.5-1.9-4.4-1.9h-4.4v19.6h4.4c1.9,0,3.4-0.6,4.4-1.9
				c0.5-0.6,0.9-1.5,1-2.7C500.8,78,500.9,76.2,500.9,73.7z"/>
			<path class="st0" d="M535.5,88.9h-6.1l-1.8-5.3H517l-1.8,5.3H509l10.9-30h4.6L535.5,88.9z M526.1,78.6l-3.7-10.9l-3.8,10.9H526.1
				z"/>
			<path class="st0" d="M558.3,58.8l-9,17.7v12.3h-5.8V76.5l-9-17.7h6.4l5.6,12.1l5.5-12.1H558.3z"/>
			<path class="st0" d="M590.4,80.8c0,2.6-0.9,4.6-2.7,6.1c-1.8,1.5-4.3,2.2-7.4,2.2c-2.2,0-4.1-0.3-5.6-0.9s-3-1.6-4.4-3l1.6-1.6
				c0.7,0.7,1.3,1.2,2,1.7c0.7,0.5,1.3,0.8,2,1.1c0.7,0.3,1.4,0.5,2.1,0.6s1.6,0.2,2.5,0.2c2.4,0,4.3-0.5,5.7-1.6
				c1.4-1.1,2.1-2.6,2.1-4.6c0-1.9-0.5-3.3-1.6-4.2c-0.3-0.2-0.5-0.4-0.8-0.6s-0.5-0.3-0.9-0.4c-0.3-0.1-0.7-0.2-1.1-0.3
				s-0.9-0.2-1.6-0.3l-3.5-0.5c-2.3-0.3-4.1-1.1-5.4-2.2c-1.6-1.3-2.4-3.2-2.4-5.5c0-2.5,0.8-4.5,2.5-6c1.7-1.5,3.9-2.2,6.8-2.2
				c1.9,0,3.4,0.3,4.7,0.8c1.3,0.5,2.6,1.3,3.9,2.4l-1.5,1.5c-0.5-0.4-0.9-0.8-1.4-1.1c-0.5-0.3-1-0.6-1.6-0.9s-1.2-0.4-1.9-0.6
				c-0.7-0.1-1.5-0.2-2.4-0.2c-2.2,0-3.9,0.5-5.1,1.6c-1.2,1.1-1.8,2.6-1.8,4.6c0,1.7,0.5,3.1,1.6,3.9c0.5,0.5,1.2,0.8,2,1.2
				c0.8,0.3,1.6,0.6,2.5,0.7l3.2,0.5c1.4,0.2,2.5,0.4,3.3,0.7c0.8,0.3,1.5,0.7,2.1,1.2c0.8,0.7,1.5,1.5,1.9,2.5
				C590.2,78.5,590.4,79.6,590.4,80.8z"/>
			<path class="st0" d="M612.6,81.6h-14l-2.6,7.3h-2.4l11-30h2l11,30h-2.4L612.6,81.6z M599.3,79.6h12.6l-6.3-17.7L599.3,79.6z"/>
			<path class="st0" d="M623,58.8h2.3v28h15.9v2H623V58.8z"/>
			<path class="st0" d="M647.1,58.8h18.2v2h-15.9v11.9H663v2h-13.6v12.1h15.9v2h-18.2V58.8z"/>
		</g>
		<g>
			<path class="st0" d="M346.6,74.7c0-0.4,0-0.8,0-1.2c0-0.5,0-0.9,0.1-1.4c0-0.3,0.1-0.6,0.2-0.9c0.1-0.3,0.1-0.6,0.2-0.9
				c0.2-0.5,0.4-1.1,0.6-1.6c0.2-0.4,0.3-0.8,0.5-1.1c0.2-0.3,0.4-0.7,0.6-1c0.2-0.3,0.4-0.6,0.6-0.9c0.4-0.5,0.8-0.9,1.2-1.4
				c0.5-0.5,1-1,1.6-1.4c0.5-0.4,1.1-0.8,1.7-1.2c0.6-0.4,1.2-0.7,1.9-1.1c0.3-0.2,0.7-0.3,1.1-0.4c0.4-0.2,0.8-0.3,1.1-0.4
				s0.6-0.2,0.9-0.3c0.5-0.1,0.9-0.2,1.4-0.3c0.5-0.1,1-0.2,1.5-0.2c0.5-0.1,1-0.1,1.5-0.1c0.4,0,0.8-0.1,1.2-0.1
				c0.6,0,1.1,0,1.7,0.1c0.6,0,1.2,0.1,1.8,0.2c0.6,0.1,1.1,0.2,1.7,0.2c0.4,0.1,0.9,0.2,1.3,0.2c0.6,0.1,1.2,0.2,1.7,0.4
				c0.5,0.1,1,0.3,1.5,0.4c0.7,0.2,1.4,0.5,2.1,0.8c0.6,0.2,1.1,0.6,1.4,1.1c0.1,0.2,0.2,0.5,0.3,0.7c0.1,0.2,0.1,0.4,0.1,0.7
				c0,0.7-0.3,1.3-0.8,1.8c-0.6,0.6-1.4,0.8-2.3,0.6c-0.4-0.1-0.7-0.3-1-0.4c-0.2-0.1-0.3-0.1-0.5-0.2c-0.2-0.1-0.5-0.1-0.7-0.2
				c-0.5-0.1-0.9-0.2-1.4-0.3c-0.1,0-0.2,0-0.2,0c-0.4-0.1-0.8-0.1-1.2-0.2c-0.3,0-0.7-0.1-1-0.1c-0.5,0-0.9-0.1-1.4-0.1
				c-1.5-0.2-3-0.1-4.5-0.1c-0.3,0-0.6,0.1-1,0.2c-0.3,0.1-0.7,0.1-1,0.2c-0.6,0.2-1.2,0.3-1.7,0.6c-0.5,0.2-0.9,0.3-1.3,0.6
				c-0.4,0.2-0.8,0.5-1.2,0.7c-0.6,0.4-1.2,0.8-1.6,1.3c-0.4,0.4-0.7,0.8-1.1,1.2c-0.3,0.3-0.5,0.6-0.7,1s-0.4,0.8-0.5,1.2
				c-0.3,0.7-0.4,1.4-0.4,2.2c0,0.5,0,1,0.1,1.5c0.1,0.7,0.3,1.3,0.7,2c0.2,0.3,0.3,0.6,0.5,0.9c0.3,0.4,0.6,0.7,0.9,1.1
				c0.5,0.6,1.1,1.1,1.8,1.6c0.6,0.4,1.2,0.8,1.8,1.1c0.5,0.3,1.1,0.5,1.7,0.7c0.5,0.2,1,0.3,1.5,0.5c0.3,0.1,0.7,0.1,1,0.2
				c0.5,0.1,0.9,0.1,1.4,0.2c0.2,0,0.4,0,0.6,0c0.6,0,1.2,0,1.9,0c0.6,0,1.2-0.1,1.8-0.1c0.4,0,0.7-0.1,1.1-0.1
				c0.4-0.1,0.7-0.1,1.1-0.2c0.1,0,0.1,0,0.2,0c0.4-0.1,0.8-0.1,1.2-0.2c0.5-0.1,0.9-0.2,1.4-0.3c0.5-0.1,0.9-0.3,1.4-0.5
				s1-0.4,1.5-0.3c0.8,0.1,1.4,0.6,1.8,1.3c0.2,0.4,0.4,0.9,0.3,1.4c-0.1,0.7-0.3,1.3-0.9,1.7c-0.3,0.2-0.6,0.4-0.9,0.6
				c-0.6,0.3-1.2,0.5-1.7,0.7c-0.4,0.1-0.8,0.2-1.2,0.3c-0.4,0.1-0.8,0.2-1.3,0.3c-0.5,0.1-0.9,0.2-1.4,0.3
				c-0.5,0.1-0.9,0.2-1.4,0.3c-0.6,0.1-1.2,0.2-1.7,0.2c-0.5,0.1-0.9,0.1-1.4,0.1c-0.6,0-1.3,0.1-1.9,0.1c-0.6,0-1.1,0-1.7,0
				c-0.5,0-1-0.1-1.4-0.2c-0.3,0-0.7-0.1-1-0.2c-0.5-0.1-0.9-0.2-1.4-0.3c-0.6-0.2-1.2-0.3-1.8-0.6c-0.6-0.2-1.3-0.5-1.9-0.8
				c-0.4-0.2-0.8-0.4-1.1-0.6c-0.6-0.4-1.2-0.8-1.8-1.2c-0.6-0.4-1.1-0.9-1.7-1.4c-0.5-0.5-0.9-1-1.3-1.5c-0.2-0.3-0.5-0.6-0.7-0.9
				c-0.2-0.3-0.4-0.7-0.6-1c-0.1-0.3-0.3-0.5-0.4-0.8c-0.2-0.4-0.3-0.8-0.5-1.2c-0.1-0.3-0.2-0.7-0.3-1c-0.1-0.2-0.1-0.5-0.1-0.7
				C346.8,75.7,346.7,75.2,346.6,74.7C346.7,74.7,346.6,74.7,346.6,74.7z M353.2,66.6c0.1-0.1,0.1-0.1,0.2-0.2
				c0.3-0.3,0.6-0.6,0.9-0.8c0.5-0.4,1-0.7,1.5-1.1c0.3-0.2,0.7-0.4,1.1-0.6c0.2-0.1,0.2-0.2,0.1-0.3c-0.1-0.2-0.2-0.4-0.3-0.6
				c-0.1-0.1-0.1-0.1-0.2-0.1c-0.2,0.1-0.4,0.2-0.6,0.3c-0.5,0.3-1,0.6-1.5,0.9c-0.7,0.5-1.3,1.1-1.9,1.7c-0.1,0.1-0.1,0.2,0,0.2
				c0.2,0.1,0.4,0.3,0.7,0.4C353.2,66.6,353.2,66.6,353.2,66.6z M357.1,83.7c-0.6-0.4-1.2-0.7-1.7-1c-0.7-0.4-1.3-1-1.9-1.6
				c-0.1-0.1-0.2-0.2-0.4-0.1c-0.2,0.2-0.5,0.3-0.7,0.4c0.1,0.1,0.2,0.2,0.3,0.2c0.6,0.6,1.2,1.2,1.9,1.7c0.6,0.4,1.2,0.7,1.8,1.1
				c0.1,0,0.3,0.1,0.3,0C356.8,84.3,356.9,84,357.1,83.7z M364.7,62.1c0.6,0,1.2,0.1,1.8,0.1s1.2,0.1,1.8,0.2c0.2,0,0.4,0.1,0.6,0.1
				c0.2,0,0.4,0.1,0.5-0.1c0.1-0.2,0.2-0.4,0.3-0.6s0.1-0.2-0.1-0.2c-0.4-0.1-0.8-0.1-1.2-0.1c-0.2,0-0.3,0-0.5,0
				c-0.6-0.1-1.2-0.1-1.9-0.2c-0.2,0-0.4,0-0.6,0c-0.3,0-0.5,0-0.8,0C364.7,61.5,364.7,61.8,364.7,62.1z M369.9,86
				c-0.2-0.3-0.3-0.6-0.5-0.8c0,0-0.1-0.1-0.2-0.1c-0.3,0-0.6,0.1-1,0.1c-0.6,0.1-1.2,0.1-1.7,0.1s-1.1,0-1.6,0
				c-0.1,0-0.2,0.1-0.2,0.1c0,0.3,0,0.6,0,1c0.1,0,0.2-0.1,0.2-0.1c0.3,0,0.5,0,0.8,0c0.5,0,0.9,0,1.4-0.1c0.5,0,1.1-0.1,1.6-0.2
				C369.1,86.1,369.5,86,369.9,86z M358.2,85.3c0.2,0,0.3,0,0.4,0.1c0.8,0.3,1.6,0.5,2.4,0.7c0.3,0.1,0.7,0.1,1,0.2
				c0.3,0,0.5,0.1,0.8,0.1c0,0,0.1-0.1,0.2-0.1c0-0.3,0-0.6,0-0.9c-0.4,0-0.7-0.1-1.1-0.1c-0.5-0.1-1-0.2-1.5-0.3
				c-0.5-0.1-1-0.3-1.5-0.5c-0.1,0-0.1,0-0.2,0.1s-0.1,0.1-0.1,0.2C358.5,84.9,358.3,85.1,358.2,85.3z M358.2,62.2
				c0.1,0.2,0.2,0.3,0.3,0.5c0.1,0.1,0.1,0.3,0.3,0.4c0.1,0,0.3-0.1,0.5-0.1c0.3-0.1,0.7-0.2,1-0.3c0.4-0.1,0.9-0.2,1.3-0.3
				c0.4-0.1,0.8-0.1,1.3-0.2c0.1,0,0.1,0,0.2,0c0-0.3,0-0.7,0-1c-0.5,0.1-1.1,0.1-1.6,0.2h-0.1c-0.3,0.1-0.5,0.1-0.8,0.2
				c-0.3,0.1-0.5,0.1-0.8,0.2C359.2,61.9,358.7,62.1,358.2,62.2z"/>
		</g>
	</g>
	<g>
		<g>
			<defs>
				<rect id="SVGID_1_" x="432.5" y="-25.1" width="77" height="77"/>
			</defs>
			<clipPath id="SVGID_2_">
				<use xlink:href="#SVGID_1_"  style="overflow:visible;"/>
			</clipPath>
			<g class="st1">
				<path class="st2" d="M507.9,38.5c0.7-0.5-8-5-8-5s-1.2-0.7-2.8-1.5c-0.4-0.2,0.9,1.2,0.4,0.9c-0.8-0.3-2.9-2-4-2.4
					c-3.6-2-9.3-3.1-17.6-5c-1.1-1-2.2-1.8-3.4-2.4c-0.3,0-0.5,0.7-0.7,0.7c-0.8,0.1-0.7,0.2-1.8-0.1c-0.4-0.1-0.4-1.4-0.8-1.7
					c-0.7-0.4-2.7-1.2-3.5-1.5c0.3-0.4,1.4,0.1,1.7-0.4c-0.9-0.7-1.8-1.5-2.6-2.5l0.6-1.1c5-1.7,4.8-5,7.5-6.7
					c0.6-1.5,1.4-2.3,2.3-3.2c0.5-0.5,1.6-0.4,1.8-1.4c1.1-0.4,0.9-1.1,1.6-1.4c1.3-0.6,2.6-1,3.9-1.4c1.8-1.7,2.4-4.5,3-6.8
					l-1.8-3.4c-2.7,0-5.3-1.7-7.9,1c-5.4,1.3-11.1-1.4-16.4,1.1c-1.8,1.6-5.4-1.1-5.2,3.4c1.7,4.1,5.6,1.1,8.4,2.2
					c2.1,1.8,6-0.8,7.1,0.7c-0.1,2.1-4.8,4.9-6.1,5.5c-1.2,5.2-5.6,3.9-8.4,6.2c-0.9,3-3.8,1.1-4.7,4.2c-1.1,3.6,1.1,6.3,2.1,9.1
					c1.6,0.5,2.9,2.6,4.5,2.6c2.6,2.8,6-0.8,8.8,1.1c1.1,0.9,2.2,3,3.6,3.3c1.6-0.4,3.5-0.7,5.1,0.3c0.7,0.4,1.6-0.3,2.1,0.7
					c1.8-0.6,3.3-1,4.8-0.6c0.9,0.3,1.3-0.9,2.1-0.4c1.2,0.7,1.7,0.9,2.7,1.6c0.9,0.6,1.9,0.2,2.8,0.7c1.4,0.9,2.1-0.4,2.9-0.1
					c0.7,0.2,2.7,1.8,3.5,1.8c0.8,0.6,1.9,0.8,2.9,0.4C499.1,36.5,507.5,38.8,507.9,38.5"/>
			</g>
		</g>
	</g>
</g>
</svg>
