<?xml version="1.0" encoding="utf-8"?>
<!-- Generated by IcoMoon.io -->
<!DOCTYPE svg PUBLIC "-//W3C//DTD SVG 1.1//EN" "http://www.w3.org/Graphics/SVG/1.1/DTD/svg11.dtd">
<svg version="1.1" xmlns="http://www.w3.org/2000/svg" xmlns:xlink="http://www.w3.org/1999/xlink" width="86" height="40" viewBox="0 0 86 40">
<path fill="rgb(255, 255, 255)" d="M83.314 8.36h0.225c0.261 0 0.472-0.086 0.472-0.298 0-0.189-0.137-0.313-0.435-0.313-0.123 0-0.213 0.012-0.262 0.026v0.584zM83.301 9.504h-0.473v-2.027c0.188-0.038 0.449-0.075 0.783-0.075 0.387 0 0.561 0.062 0.711 0.161 0.111 0.087 0.199 0.249 0.199 0.435 0 0.236-0.174 0.411-0.423 0.487v0.023c0.199 0.061 0.312 0.225 0.372 0.497 0.062 0.313 0.099 0.437 0.151 0.499h-0.512c-0.062-0.073-0.1-0.249-0.162-0.485-0.038-0.224-0.162-0.323-0.424-0.323h-0.224v0.809zM83.611 6.817c-0.894 0-1.566 0.734-1.566 1.63 0 0.909 0.672 1.63 1.593 1.63 0.895 0.011 1.556-0.721 1.556-1.63 0-0.896-0.661-1.63-1.569-1.63h-0.013zM83.638 6.406c1.17 0 2.076 0.908 2.076 2.041 0 1.157-0.907 2.053-2.090 2.053-1.17 0-2.103-0.895-2.103-2.053 0-1.132 0.933-2.041 2.103-2.041h0.014z"></path>
<path fill="rgb(255, 255, 255)" d="M18.465 28.223l-4.893 0.003-0.007-7.926c0-0.633-0.026-1.268-0.079-1.9-0.052-0.63-0.148-1.096-0.291-1.395-0.171-0.354-0.417-0.608-0.736-0.762-0.321-0.155-0.75-0.232-1.288-0.231-0.407 0-0.816 0.075-1.23 0.226-0.416 0.15-0.858 0.389-1.33 0.716l0.008 11.279-4.894 0.002-0.015-21.945 4.892-0.002 0.006 7.827c0.804-0.683 1.586-1.217 2.348-1.599 0.76-0.384 1.605-0.578 2.531-0.578 1.608 0 2.839 0.506 3.69 1.518 0.851 1.015 1.279 2.483 1.28 4.406l0.008 10.363z"></path>
<path fill="rgb(255, 255, 255)" d="M37.224 20.232c0.001 2.589-0.706 4.63-2.121 6.124-1.415 1.493-3.416 2.239-6.005 2.241-2.57 0.001-4.569-0.742-5.993-2.232-1.426-1.49-2.142-3.532-2.144-6.12-0.001-2.618 0.709-4.669 2.134-6.151 1.422-1.482 3.421-2.226 5.991-2.227 2.581-0.002 4.579 0.743 6.003 2.232 1.422 1.491 2.133 3.534 2.136 6.134zM32.182 20.265c0-0.937-0.078-1.715-0.231-2.336-0.155-0.626-0.367-1.122-0.639-1.497-0.289-0.392-0.615-0.665-0.979-0.818-0.364-0.155-0.78-0.233-1.244-0.231-0.439 0-0.835 0.067-1.19 0.204-0.353 0.136-0.681 0.395-0.978 0.779-0.28 0.366-0.505 0.866-0.671 1.501-0.169 0.637-0.251 1.437-0.249 2.401 0 0.963 0.080 1.742 0.239 2.337 0.157 0.594 0.364 1.068 0.617 1.424 0.261 0.364 0.587 0.629 0.978 0.798 0.393 0.168 0.826 0.251 1.303 0.251 0.39 0 0.788-0.084 1.194-0.253 0.405-0.171 0.73-0.421 0.97-0.76 0.29-0.402 0.508-0.887 0.658-1.451 0.149-0.568 0.224-1.352 0.221-2.352z"></path>
<path fill="rgb(255, 255, 255)" d="M50.405 17.005l-0.407 0.003c-0.189-0.069-0.463-0.121-0.816-0.155-0.359-0.033-0.752-0.051-1.183-0.051-0.516 0-1.056 0.077-1.627 0.226-0.567 0.149-1.116 0.329-1.649 0.533l0.005 10.527-4.892 0.004-0.012-16.046 4.893-0.005 0.002 2.564c0.225-0.204 0.536-0.465 0.934-0.776 0.398-0.315 0.762-0.565 1.091-0.751 0.356-0.215 0.77-0.403 1.245-0.556 0.473-0.153 0.92-0.233 1.342-0.233 0.158 0 0.338 0.004 0.535 0.013 0.198 0.011 0.375 0.024 0.536 0.043l0.003 4.659z"></path>
<path fill="rgb(255, 255, 255)" d="M75.5 28.46c-2.969 0.020-5.25-0.676-6.843-2.085-1.592-1.408-2.399-3.427-2.416-6.049-0.016-2.568 0.707-4.622 2.174-6.164s3.528-2.322 6.183-2.339c2.412-0.017 4.229 0.62 5.453 1.911 1.226 1.291 1.843 3.144 1.86 5.563l0.011 1.764-10.782 0.071c0.052 0.734 0.211 1.347 0.476 1.84 0.266 0.491 0.612 0.883 1.049 1.17 0.421 0.289 0.914 0.497 1.477 0.619 0.563 0.124 1.175 0.181 1.84 0.178 0.571-0.003 1.134-0.071 1.685-0.204 0.551-0.135 1.056-0.307 1.512-0.518 0.402-0.185 0.773-0.382 1.112-0.595 0.343-0.212 0.62-0.401 0.832-0.563l0.519-0.003 0.029 4.056c-0.4 0.16-0.765 0.312-1.098 0.45-0.331 0.137-0.783 0.278-1.363 0.423-0.531 0.143-1.081 0.256-1.643 0.341-0.565 0.082-1.252 0.128-2.065 0.133zM77.069 18.136c-0.035-1.043-0.28-1.834-0.743-2.373-0.459-0.541-1.158-0.808-2.096-0.802-0.959 0.005-1.708 0.296-2.243 0.872-0.537 0.579-0.829 1.357-0.88 2.341l5.962-0.037z"></path>
<path fill="rgb(237, 28, 36)" d="M76.512 32.375c0.329-0.216-3.67-2.315-3.67-2.315s-0.545-0.318-1.311-0.682c-0.192-0.091 0.424 0.533 0.169 0.421-0.35-0.147-1.342-0.933-1.825-1.113-1.679-0.913-4.288-1.439-8.112-2.318-0.503-0.464-1.026-0.809-1.549-1.116-0.136 0.001-0.224 0.32-0.333 0.327-0.359 0.025-0.345 0.081-0.814-0.069-0.198-0.062-0.176-0.663-0.365-0.78-0.318-0.201-1.258-0.572-1.61-0.713 0.144-0.202 0.661 0.032 0.775-0.173-0.417-0.313-0.816-0.681-1.185-1.154l0.269-0.516c2.321-0.77 2.195-2.279 3.47-3.063 0.273-0.672 0.657-1.044 1.063-1.468 0.228-0.239 0.733-0.187 0.844-0.634 0.525-0.187 0.427-0.509 0.727-0.651 0.579-0.274 1.188-0.466 1.788-0.641 0.813-0.793 1.080-2.066 1.364-3.134l-0.828-1.545c-1.23 0.021-2.445-0.783-3.636 0.471-2.468 0.595-5.097-0.632-7.527 0.506-0.82 0.727-2.497-0.503-2.403 1.549 0.802 1.892 2.569 0.501 3.889 1.019 0.952 0.849 2.775-0.374 3.283 0.318-0.031 0.968-2.188 2.267-2.783 2.551-0.547 2.409-2.589 1.777-3.846 2.836-0.417 1.359-1.759 0.501-2.169 1.929-0.498 1.648 0.515 2.892 0.968 4.211 0.736 0.249 1.315 1.205 2.083 1.177 1.219 1.287 2.742-0.354 4.034 0.51 0.491 0.419 1.022 1.383 1.646 1.508 0.739-0.191 1.633-0.3 2.35 0.133 0.309 0.188 0.743-0.119 0.958 0.309 0.828-0.279 1.507-0.468 2.211-0.262 0.402 0.116 0.581-0.401 0.962-0.194 0.574 0.312 0.789 0.414 1.248 0.72 0.409 0.273 0.885 0.084 1.299 0.337 0.648 0.4 0.949-0.183 1.359-0.042 0.329 0.112 1.259 0.806 1.61 0.834 0.379 0.293 0.896 0.386 1.344 0.191 0.161-0.204 4.050 0.856 4.251 0.725z"></path>
</svg>
