<?xml version="1.0" encoding="utf-8"?>
<!-- Generated by IcoMoon.io -->
<!DOCTYPE svg PUBLIC "-//W3C//DTD SVG 1.1//EN" "http://www.w3.org/Graphics/SVG/1.1/DTD/svg11.dtd">
<svg version="1.1" xmlns="http://www.w3.org/2000/svg" xmlns:xlink="http://www.w3.org/1999/xlink" width="40" height="40" viewBox="0 0 40 40">
<path fill="rgb(255, 255, 255)" d="M16.643 35.222l0.963 0.182-0.185-1.667-0.779 1.485z"></path>
<path fill="rgb(255, 255, 255)" d="M14.35 5.482c0.429-0.163 0.596-0.484 0.439-0.896-0.152-0.399-0.47-0.529-0.905-0.363l-0.323 0.123 0.477 1.254 0.312-0.118z"></path>
<path fill="rgb(255, 255, 255)" d="M26.736 31.966l-0.334 0.201 1.459 2.429 0.334-0.201c0.658-0.396 0.847-1.008 0.337-1.855-0.499-0.83-1.166-0.951-1.796-0.574z"></path>
<path fill="rgb(255, 255, 255)" d="M20 0.803c-10.585 0-19.197 8.612-19.197 19.199 0 10.585 8.611 19.196 19.196 19.196s19.197-8.611 19.197-19.196c0.001-10.587-8.612-19.199-19.196-19.199zM34.547 10.123l-0.776 1.822 1.493 1.302-1.972-0.174-0.776 1.822-0.443-1.931-1.974-0.176 1.699-1.017-0.442-1.932 1.492 1.302 1.699-1.017zM27.513 6.347c0.841-1.156 2.078-1.454 3.159-0.666 0.432 0.314 0.714 0.685 0.871 1.055l-0.703 0.719c-0.134-0.37-0.342-0.737-0.703-0.999-0.604-0.44-1.246-0.179-1.753 0.517-0.511 0.702-0.564 1.416 0.040 1.856 0.193 0.14 0.358 0.203 0.559 0.225l0.484-0.664-0.61-0.444 0.398-0.76 1.468 1.069-1.321 1.815c-0.55-0.012-1.084-0.186-1.568-0.537-1.11-0.809-1.159-2.035-0.321-3.185zM22.374 4.59c0.39-1.374 1.447-2.083 2.734-1.717 0.513 0.146 0.907 0.397 1.183 0.689l-0.41 0.919c-0.254-0.301-0.575-0.573-1.004-0.695-0.72-0.203-1.231 0.262-1.466 1.091-0.237 0.836-0.040 1.524 0.68 1.727 0.229 0.065 0.406 0.067 0.603 0.018l0.224-0.792-0.726-0.205 0.111-0.851 1.747 0.495-0.613 2.16c-0.521 0.179-1.083 0.2-1.657 0.038-1.323-0.376-1.793-1.509-1.405-2.879zM18.266 2.228l1.029 1.873 0.838-1.911 1.124-0.051-1.425 2.98 0.077 1.695-1.080 0.050-0.076-1.682-1.622-2.735 1.135-0.219zM13.676 3.379c0.981-0.373 1.737-0.118 2.075 0.768 0.226 0.593 0.111 1.102-0.286 1.51l1.574 1.217-0.959 0.573-1.467-1.186-0.276 0.106 0.564 1.479-0.998 0.38-1.641-4.308 1.415-0.539zM10.15 5.111l0.727 0.658-1.010 0.819 2.295 2.827-0.84 0.681-2.295-2.827-0.931 0.757-0.611-0.752 2.665-2.163zM5.359 10.123l1.699 1.017 1.492-1.302-0.442 1.932 1.699 1.017-1.974 0.176-0.443 1.931-0.776-1.822-1.972 0.174 1.493-1.302-0.776-1.822zM2.364 18.744h1.981l0.61-1.73 0.614 1.961 1.98 0.037-1.601 1.186 0.612 1.892-1.604-1.16-1.601 1.168 0.611-2.036-1.602-1.317zM6.649 27.84l-0.605-1.258-0.896 0.433 0.739 1.535-0.825 0.398-1.198-2.486 4.153-2.001 1.173 2.435-0.825 0.398-0.714-1.484-0.758 0.366 0.546 1.132-0.789 0.533zM8.652 31.187l-1.128-1.293 0.725-0.633 1.128 1.293-0.725 0.633zM11.591 35.261l0.99-1.603-1.278-0.789-0.99 1.603-0.915-0.566 2.422-3.922 0.914 0.564-0.905 1.467 1.278 0.788 0.906-1.466 0.914 0.565-2.421 3.923-0.915-0.564zM17.83 37.377l-0.136-1.046-1.464-0.276-0.474 0.883-1.031-0.194 2.389-4.262 1.162 0.22 0.651 4.691-1.097-0.016zM8.58 20c0-6.297 5.123-11.42 11.42-11.42s11.42 5.123 11.42 11.42-5.123 11.421-11.42 11.421-11.42-5.123-11.42-11.421zM23.954 37.020l-2.164-2.419 0.48 2.718-0.984 0.173-0.803-4.54 1.028-0.181 2.021 2.261-0.449-2.54 0.984-0.174 0.803 4.539-0.915 0.162zM28.701 35.127l-1.304 0.783-2.374-3.951 1.277-0.768c1.293-0.777 2.45-0.388 3.156 0.786s0.501 2.397-0.755 3.151zM32.51 32.215l-3.534-2.961 1.736-2.072 0.701 0.588-1.058 1.262 0.646 0.541 0.808-0.964 0.81 0.499-0.895 1.070 0.762 0.64 1.094-1.305 0.701 0.588-1.772 2.115zM35.551 27.938l-4.241-1.806 0.422-0.99 3.331 1.42 0.522-1.226 0.967 0.256-1 2.346zM35.145 20.936l-1.603 1.165 0.613-1.884-1.604-1.166 1.981 0.001 0.615-1.884 0.61 1.884 1.981 0.002-1.601 1.163 0.61 1.884-1.602-1.165z"></path>
<path fill="rgb(255, 255, 255)" d="M26.057 17.64h-0.819v-2.807c0-2.441-2.351-4.427-5.242-4.427s-5.245 1.987-5.245 4.427v2.807h-0.818c-0.487 0-0.882 0.395-0.882 0.881v8.672c0 0.487 0.395 0.881 0.882 0.881h12.123c0.488 0 0.883-0.395 0.883-0.881v-8.672c0-0.487-0.394-0.881-0.882-0.881zM20.725 22.689v2.14c0 0.406-0.328 0.733-0.73 0.733-0.404 0-0.733-0.327-0.733-0.733v-2.14c-0.254-0.21-0.416-0.527-0.416-0.883 0-0.634 0.514-1.148 1.15-1.148 0.631 0 1.146 0.513 1.146 1.148 0 0.355-0.162 0.673-0.416 0.883zM23.034 17.64h-6.078v-2.807c0-1.204 1.392-2.222 3.040-2.222 1.647 0 3.038 1.017 3.038 2.222v2.807z"></path>
</svg>
