<?xml version="1.0" encoding="utf-8"?>
<!-- Generated by IcoMoon.io -->
<!DOCTYPE svg PUBLIC "-//W3C//DTD SVG 1.1//EN" "http://www.w3.org/Graphics/SVG/1.1/DTD/svg11.dtd">
<svg version="1.1" xmlns="http://www.w3.org/2000/svg" xmlns:xlink="http://www.w3.org/1999/xlink" width="40" height="40" viewBox="0 0 40 40">
<path fill="rgb(255, 255, 255)" d="M18.332 0.434c-2.385 0.193-4.737 0.859-7.029 1.992-1.972 0.966-3.551 2.099-5.123 3.651-2.918 2.892-4.85 6.596-5.537 10.62-0.979 5.756 0.613 11.566 4.397 16.043 0.68 0.8 2.152 2.205 2.951 2.818 2.825 2.159 5.963 3.451 9.607 3.958 1.153 0.153 3.644 0.153 4.797 0 3.804-0.526 7.122-1.939 9.994-4.264 0.859-0.693 2.225-2.059 2.905-2.912 1.699-2.119 3.065-4.857 3.724-7.429 0.826-3.238 0.826-6.556 0-9.794-0.666-2.612-2.045-5.343-3.784-7.495-0.693-0.859-2.059-2.225-2.912-2.905-2.119-1.699-4.85-3.065-7.429-3.724-2.145-0.546-4.364-0.74-6.563-0.56zM21.304 2.666c0.573 0.286 0.786 0.66 0.819 1.406 0.033 0.939-0.306 1.532-1.046 1.832-0.326 0.127-0.506 0.147-1.259 0.147-0.486 0-0.913-0.027-0.939-0.060-0.033-0.040-0.027-0.859 0.007-1.826l0.067-1.752 0.986 0.027c0.933 0.027 0.999 0.040 1.366 0.227zM16.933 2.973c0.040 0.16 0.087 0.32 0.1 0.36 0.013 0.047-0.207 0.133-0.553 0.227-0.32 0.080-0.62 0.16-0.666 0.173-0.067 0.020-0.080 0.1-0.047 0.313 0.027 0.153 0.060 0.293 0.067 0.3 0.013 0.013 0.273-0.040 0.573-0.113 0.306-0.080 0.586-0.14 0.633-0.14 0.087 0 0.227 0.386 0.227 0.606 0 0.080-0.14 0.14-0.526 0.227-0.293 0.067-0.566 0.14-0.606 0.167-0.093 0.060-0.013 0.6 0.1 0.64 0.047 0.020 0.373-0.040 0.726-0.133 0.46-0.113 0.653-0.14 0.673-0.087 0.1 0.313 0.153 0.613 0.113 0.653-0.047 0.040-2.232 0.593-2.259 0.573-0.020-0.027-0.879-3.471-0.866-3.484 0.020-0.013 2.139-0.546 2.192-0.553 0.027-0.007 0.080 0.12 0.12 0.273zM27.293 3.985c0.187 0.080 0.433 0.233 0.546 0.333 0.24 0.2 0.233 0.233-0.073 0.593l-0.153 0.193-0.306-0.233c-0.353-0.266-0.673-0.366-0.813-0.246-0.173 0.14-0.107 0.313 0.26 0.713 0.58 0.633 0.693 0.979 0.466 1.459-0.22 0.466-0.733 0.686-1.299 0.566-0.433-0.093-0.859-0.3-1.159-0.566l-0.253-0.213 0.22-0.306 0.22-0.313 0.24 0.207c0.466 0.413 1.059 0.56 1.166 0.28 0.053-0.147-0.060-0.333-0.466-0.78-0.453-0.486-0.553-0.806-0.393-1.226 0.167-0.433 0.48-0.62 1.033-0.62 0.313 0 0.526 0.047 0.766 0.16zM13.162 4.218l0.173 0.333-0.4 0.213c-0.42 0.22-0.453 0.28-0.313 0.493 0.093 0.14 1.179 2.212 1.179 2.252s-0.799 0.406-0.826 0.373c-0.033-0.040-1.233-2.279-1.259-2.359-0.013-0.033-0.22 0.027-0.453 0.14l-0.433 0.213-0.18-0.34c-0.1-0.187-0.167-0.346-0.16-0.353 0.040-0.040 2.412-1.286 2.452-1.293 0.020 0 0.12 0.147 0.22 0.326zM30.312 5.764l0.34 0.273-0.44 0.533c-0.413 0.493-0.433 0.533-0.313 0.613 0.073 0.053 0.273 0.213 0.46 0.366 0.18 0.147 0.346 0.273 0.373 0.273 0.020 0 0.227-0.227 0.453-0.5l0.413-0.506 0.36 0.286c0.2 0.153 0.346 0.3 0.326 0.333-0.1 0.16-2.172 2.685-2.219 2.705-0.033 0.007-0.213-0.107-0.4-0.253l-0.346-0.273 0.44-0.533c0.247-0.293 0.433-0.56 0.42-0.586-0.033-0.087-0.833-0.74-0.893-0.733-0.033 0-0.253 0.24-0.486 0.533l-0.42 0.526-0.18-0.133c-0.093-0.067-0.26-0.193-0.36-0.28l-0.193-0.16 1.119-1.379c0.613-0.76 1.139-1.379 1.159-1.379 0.027 0 0.2 0.127 0.386 0.273zM9.391 6.597c0.087 0.173 0.147 0.313 0.133 0.326-0.013 0.007-0.16 0.093-0.326 0.193-0.413 0.233-0.54 0.386-0.513 0.62 0.027 0.253 0.273 0.28 0.7 0.073 0.233-0.113 0.44-0.153 0.773-0.153 0.446 0 0.46 0.007 0.713 0.273 0.433 0.466 0.426 0.986-0.020 1.572-0.22 0.293-0.826 0.74-1.093 0.819-0.127 0.033-0.173-0.007-0.313-0.293l-0.173-0.333 0.406-0.213c0.446-0.24 0.673-0.48 0.646-0.68-0.033-0.213-0.213-0.286-0.5-0.2-0.14 0.040-0.42 0.127-0.626 0.193-0.48 0.14-0.793 0.087-1.106-0.2-0.207-0.187-0.247-0.266-0.273-0.58-0.033-0.413 0.067-0.706 0.353-1.046 0.22-0.26 0.819-0.68 0.966-0.68 0.060 0 0.173 0.14 0.253 0.306zM21.863 7.789c1.319 0.207 2.299 0.513 3.564 1.133 3.451 1.679 5.863 4.79 6.676 8.621 0.167 0.773 0.18 0.966 0.187 2.405 0 1.379-0.020 1.659-0.153 2.332-0.18 0.866-0.56 2.065-0.906 2.825-1.153 2.532-3.305 4.697-5.87 5.91-6.063 2.858-13.305 0.313-16.257-5.703-1.446-2.945-1.679-6.223-0.653-9.294 1.712-5.137 6.603-8.555 11.946-8.355 0.46 0.020 1.119 0.080 1.466 0.127zM6.973 9.875c0.44 0.273 0.899 0.566 1.019 0.66 0.293 0.22 0.54 0.626 0.586 0.973 0.073 0.553-0.44 1.472-0.953 1.686-0.306 0.133-0.806 0.113-1.139-0.040-0.306-0.14-1.992-1.179-2.045-1.259-0.013-0.027 0.080-0.227 0.207-0.433l0.24-0.38 0.173 0.113c0.753 0.493 1.686 1.059 1.872 1.139 0.306 0.133 0.586 0.053 0.746-0.2 0.067-0.12 0.127-0.267 0.127-0.326 0-0.213-0.333-0.506-1.213-1.053-0.486-0.306-0.926-0.593-0.973-0.633-0.073-0.067-0.047-0.147 0.153-0.46 0.147-0.22 0.28-0.353 0.326-0.326 0.040 0.027 0.433 0.266 0.873 0.54zM34.023 9.782c0.919 0.433 1.319 1.572 0.833 2.412-0.107 0.187-0.313 0.44-0.46 0.553-1.066 0.846-2.292 0.613-2.865-0.54-0.333-0.66-0.24-1.299 0.26-1.872 0.24-0.267 0.76-0.586 1.099-0.666 0.353-0.087 0.813-0.040 1.133 0.113zM36.694 14.459c0.366 1.073 0.293 1.692-0.253 2.025-0.726 0.44-1.532 0.087-1.859-0.813-0.080-0.213-0.18-0.386-0.22-0.386s-0.306 0.073-0.586 0.16l-0.52 0.16-0.12-0.406c-0.073-0.227-0.107-0.433-0.087-0.46 0.087-0.087 3.305-1.039 3.358-0.986 0.033 0.027 0.16 0.346 0.286 0.706zM4.707 14.012c0.253 0.113 0.413 0.326 0.533 0.7 0.033 0.12 0.040 0.12 0.173 0 0.12-0.107 0.267-0.133 0.899-0.147 0.866-0.027 0.846-0.047 0.633 0.553l-0.12 0.333-0.68 0.033c-0.58 0.027-0.7 0.053-0.78 0.16-0.113 0.167-0.12 0.44-0.007 0.44 0.073 0 1.126 0.326 1.159 0.36s-0.233 0.799-0.286 0.819c-0.033 0.007-0.793-0.207-1.692-0.473l-1.632-0.5 0.020-0.273c0.020-0.353 0.38-1.452 0.533-1.646 0.18-0.227 0.613-0.486 0.806-0.486 0.093 0 0.293 0.060 0.44 0.127zM3.128 17.99c0.133 0.040 0.147 0.080 0.147 0.5v0.46l0.42 0.007c0.227 0.007 0.846 0.027 1.379 0.053l0.966 0.040 0.040 0.919-2.872-0.093v0.946l-0.766-0.040 0.020-0.966c0.007-0.533 0.033-1.166 0.053-1.419l0.040-0.446h0.213c0.113 0 0.273 0.020 0.36 0.040zM37.114 18.256c0.366 0.326 0.5 0.746 0.46 1.439-0.020 0.286-0.060 0.553-0.1 0.593s-0.18 0.040-0.413-0.013c-0.286-0.060-0.34-0.093-0.306-0.18 0.027-0.067 0.060-0.28 0.080-0.486 0.047-0.466-0.053-0.673-0.3-0.646-0.16 0.020-0.207 0.087-0.38 0.533-0.267 0.673-0.426 0.879-0.793 1.019-0.266 0.1-0.346 0.107-0.606 0.033-0.346-0.1-0.64-0.393-0.773-0.779-0.093-0.286-0.113-1.053-0.040-1.446l0.053-0.253 0.38 0.047c0.207 0.027 0.386 0.053 0.386 0.053 0.007 0.007-0.027 0.207-0.080 0.44-0.1 0.5-0.047 0.853 0.147 0.979 0.213 0.147 0.393-0.033 0.566-0.553 0.107-0.326 0.227-0.533 0.426-0.74 0.266-0.26 0.306-0.28 0.66-0.28 0.333 0 0.4 0.027 0.633 0.24zM5.074 23.826c0.56 0.38 0.32 1.186-0.346 1.186s-0.913-0.913-0.333-1.226c0.253-0.14 0.426-0.127 0.68 0.040zM35.761 23.886c0.44 0.413 0.147 1.119-0.46 1.126-0.353 0-0.646-0.306-0.646-0.66 0.007-0.58 0.686-0.866 1.106-0.466zM32.297 27.577c-0.013 0.040-0.193 0.306-0.4 0.593s-0.373 0.546-0.373 0.573c0 0.027 0.1 0.127 0.22 0.213 0.113 0.087 0.32 0.24 0.453 0.34l0.24 0.18 0.413-0.566c0.366-0.506 0.426-0.56 0.54-0.5 0.073 0.040 0.133 0.093 0.133 0.12-0.007 0.027-0.18 0.286-0.393 0.58-0.233 0.32-0.373 0.56-0.34 0.6s0.28 0.227 0.553 0.413l0.493 0.346 0.446-0.633c0.393-0.546 0.466-0.62 0.58-0.56 0.067 0.040 0.127 0.093 0.127 0.127 0 0.060-0.939 1.372-1.086 1.519-0.060 0.060-0.3-0.080-1.046-0.626-0.533-0.386-1.186-0.859-1.446-1.046l-0.486-0.353 0.286-0.373c0.153-0.207 0.406-0.553 0.566-0.773 0.26-0.36 0.3-0.393 0.42-0.32 0.067 0.040 0.113 0.113 0.1 0.147zM8.165 27.81c0.18 0.093 0.433 0.286 0.566 0.44 0.293 0.333 0.566 0.859 0.513 0.993-0.047 0.127-0.306 0.133-0.306 0.007 0-0.047-0.12-0.266-0.267-0.486-0.473-0.713-1.133-0.926-1.832-0.593-0.76 0.36-1.126 1.086-0.893 1.779 0.087 0.246 0.486 0.779 0.633 0.839 0.067 0.027 0.626-0.326 0.906-0.573 0.027-0.027-0.040-0.173-0.147-0.34-0.147-0.22-0.173-0.313-0.12-0.38 0.12-0.147 0.173-0.107 0.513 0.36l0.326 0.453-0.66 0.48c-0.36 0.267-0.693 0.486-0.746 0.486-0.16 0-0.839-0.773-1.013-1.146-0.7-1.499 1.013-3.071 2.525-2.319zM30.391 29.976c0 0.040-0.24 0.286-0.526 0.54-0.593 0.52-0.586 0.446-0.047 1.026l0.32 0.34 0.52-0.466c0.506-0.46 0.52-0.466 0.633-0.34 0.127 0.14 0.093 0.18-0.733 0.879l-0.193 0.167 0.273 0.326c0.153 0.18 0.36 0.406 0.466 0.506l0.187 0.18 0.56-0.493c0.306-0.273 0.58-0.5 0.6-0.5 0.060 0 0.207 0.147 0.207 0.207 0 0.020-0.333 0.333-0.74 0.693-0.613 0.546-0.746 0.64-0.819 0.56-0.047-0.053-0.513-0.573-1.039-1.159s-1.026-1.146-1.113-1.239l-0.16-0.173 0.706-0.646c0.58-0.533 0.726-0.633 0.806-0.566 0.053 0.040 0.093 0.113 0.093 0.16zM10.364 30.202c0.147 0.16 0.18 0.107-0.68 1.166-0.733 0.906-0.879 1.159-0.879 1.526 0 0.406 0.426 0.78 0.879 0.78 0.353 0 0.646-0.253 1.452-1.266 0.706-0.879 0.76-0.933 0.886-0.846 0.080 0.053 0.147 0.12 0.16 0.153s-0.333 0.493-0.766 1.026c-0.673 0.833-0.833 0.993-1.159 1.159-0.326 0.16-0.433 0.18-0.686 0.147-0.32-0.053-0.753-0.333-0.986-0.653-0.2-0.266-0.227-0.766-0.060-1.139 0.127-0.28 1.592-2.172 1.686-2.179 0.020 0 0.093 0.060 0.153 0.127zM28.193 31.748c0.047 0.073 0.067 0.147 0.053 0.153-0.013 0.013-0.22 0.133-0.466 0.266-0.253 0.14-0.453 0.26-0.453 0.28 0 0.013 0.346 0.64 0.766 1.399s0.766 1.399 0.766 1.426c0 0.047-0.34 0.22-0.36 0.187-0.007-0.013-0.36-0.64-0.78-1.399s-0.786-1.386-0.813-1.386c-0.033 0-0.24 0.107-0.453 0.233-0.466 0.273-0.5 0.28-0.593 0.107-0.060-0.12 0.040-0.193 1.053-0.759 0.613-0.353 1.133-0.64 1.159-0.64 0.027-0.007 0.080 0.053 0.12 0.133zM14.055 32.687l0.227 0.087-0.033 0.4c-0.060 0.746-0.34 3.331-0.36 3.358-0.007 0.013-0.107-0.013-0.22-0.060-0.173-0.073-0.2-0.113-0.173-0.26 0.020-0.093 0.053-0.366 0.073-0.606l0.047-0.433-0.56-0.253c-0.3-0.133-0.586-0.247-0.633-0.247-0.040 0-0.24 0.187-0.44 0.406-0.326 0.373-0.38 0.406-0.54 0.353-0.093-0.033-0.18-0.087-0.18-0.12-0.007-0.053 2.472-2.705 2.532-2.705 0.020 0 0.133 0.040 0.26 0.080zM25.155 33.553c0.060 0.193 0.253 0.919 0.44 1.619 0.187 0.693 0.353 1.313 0.373 1.372 0.020 0.080-0.033 0.133-0.18 0.187-0.2 0.067-0.22 0.060-1.113-0.773-0.5-0.466-1.079-1.019-1.279-1.233s-0.386-0.386-0.413-0.386 0 0.14 0.060 0.306c0.060 0.167 0.247 0.826 0.42 1.466l0.313 1.159-0.16 0.040c-0.093 0.027-0.187 0.020-0.213-0.013-0.033-0.033-0.213-0.66-0.4-1.392-0.193-0.733-0.393-1.479-0.446-1.659s-0.080-0.34-0.067-0.353 0.127-0.040 0.247-0.060c0.213-0.033 0.28 0.013 1.299 0.959 0.593 0.553 1.153 1.099 1.253 1.226 0.173 0.207 0.18 0.213 0.153 0.053-0.013-0.093-0.12-0.48-0.233-0.866s-0.28-0.973-0.366-1.313l-0.167-0.613 0.14-0.027c0.080-0.013 0.167-0.033 0.193-0.040 0.027 0 0.093 0.153 0.147 0.34zM16.82 33.633c0.6 0.113 0.839 0.227 1.073 0.506 0.2 0.24 0.233 0.6 0.080 0.966-0.1 0.233-0.446 0.5-0.653 0.5-0.067 0-0.12 0.027-0.12 0.067 0 0.033 0.027 0.067 0.067 0.067 0.14 0 0.253 0.4 0.3 1.046 0.047 0.64 0.040 0.686-0.073 0.686-0.273 0-0.32-0.107-0.36-0.746-0.020-0.433-0.067-0.68-0.147-0.799-0.113-0.173-0.46-0.32-0.766-0.32-0.153 0-0.153 0.013-0.353 1.046-0.073 0.36-0.107 0.42-0.227 0.42-0.073 0-0.173-0.027-0.213-0.053-0.047-0.033 0.047-0.6 0.3-1.766 0.306-1.432 0.386-1.712 0.48-1.712 0.060 0 0.34 0.040 0.613 0.093zM20.638 34.273c0.253 0.68 1.159 3.225 1.159 3.278 0 0.033-0.093 0.053-0.213 0.040-0.2-0.020-0.22-0.047-0.406-0.573l-0.2-0.553-1.339 0.040-0.18 0.566c-0.167 0.546-0.18 0.566-0.38 0.586-0.12 0.013-0.213 0-0.213-0.027s0.26-0.853 0.58-1.839l0.58-1.792 0.26 0.020c0.233 0.020 0.273 0.047 0.353 0.253z"></path>
<path fill="rgb(255, 255, 255)" d="M19.905 3.152c-0.027 0.040-0.067 0.553-0.087 1.139l-0.040 1.066h0.333c0.64 0 1.039-0.446 1.046-1.159 0.007-0.46-0.133-0.753-0.433-0.933-0.24-0.14-0.76-0.213-0.819-0.113z"></path>
<path fill="rgb(255, 255, 255)" d="M20.931 11.987c-1.586 0.286-3.198 1.179-4.531 2.498-1.412 1.406-2.418 3.098-2.965 5.004-0.38 1.299-0.46 1.879-0.453 3.258 0 1.053 0.020 1.306 0.147 1.766 0.466 1.712 1.539 2.838 3.105 3.238 1.379 0.36 3.031 0.167 4.497-0.526 0.4-0.187 1.279-0.74 1.659-1.046 0.453-0.36 1.286-1.246 1.732-1.832 0.127-0.167 0.333-0.413 0.466-0.553l0.233-0.247-0.373-0.373c-0.273-0.28-0.393-0.36-0.466-0.32-0.060 0.033-0.293 0.3-0.526 0.593-0.906 1.139-1.999 2.072-2.898 2.472-0.953 0.42-2.205 0.48-2.912 0.133-0.946-0.46-1.412-1.546-1.492-3.458-0.047-1.106-0.040-1.113 0.393-1.113 0.133 0 0.313-0.027 0.4-0.060s0.44-0.127 0.786-0.207c0.899-0.2 2.399-0.653 3.331-0.993 0.6-0.22 1.486-0.6 1.526-0.66 0.020-0.027 0.233-0.147 0.466-0.266 1.346-0.7 2.232-1.519 2.818-2.612 0.313-0.58 0.413-1.046 0.373-1.786-0.027-0.54-0.053-0.66-0.286-1.113-0.44-0.866-1.399-1.586-2.412-1.799-0.566-0.12-1.945-0.12-2.618 0zM22.363 13.213c0.326 0.147 0.653 0.506 0.773 0.853 0.053 0.14 0.093 0.5 0.087 0.819-0.013 1.872-1.372 3.458-3.891 4.551-0.6 0.26-1.193 0.46-2.792 0.946l-0.293 0.087 0.047-0.373c0.107-0.899 0.693-2.818 1.046-3.411 0.033-0.053 0.12-0.233 0.2-0.4 0.293-0.606 0.906-1.446 1.492-2.032 0.859-0.866 1.486-1.153 2.498-1.159 0.413 0 0.64 0.027 0.833 0.12z"></path>
<path fill="rgb(255, 255, 255)" d="M33.256 10.548c-0.68 0.22-1.199 0.819-1.099 1.279 0.060 0.266 0.393 0.526 0.673 0.526 0.653 0 1.426-0.64 1.426-1.179 0-0.446-0.533-0.779-0.999-0.626z"></path>
<path fill="rgb(255, 255, 255)" d="M35.555 14.898c-0.22 0.073-0.406 0.147-0.42 0.153-0.053 0.047 0.087 0.38 0.227 0.533 0.3 0.32 0.826 0.153 0.826-0.266 0-0.253-0.1-0.566-0.18-0.56-0.033 0-0.233 0.067-0.453 0.14z"></path>
<path fill="rgb(255, 255, 255)" d="M4.028 14.918c-0.16 0.113-0.333 0.553-0.247 0.633 0.060 0.053 0.673 0.267 0.766 0.267 0.033 0 0.087-0.12 0.127-0.26 0.14-0.533-0.247-0.919-0.646-0.64z"></path>
<path fill="rgb(255, 255, 255)" d="M13.256 33.707c-0.326 0.34-0.586 0.633-0.586 0.646 0 0.053 0.933 0.473 0.973 0.44 0.040-0.047 0.24-1.579 0.213-1.659-0.013-0.027-0.28 0.227-0.6 0.573z"></path>
<path fill="rgb(255, 255, 255)" d="M16.314 34.526c-0.060 0.326-0.113 0.626-0.113 0.666s0.16 0.107 0.36 0.153c0.273 0.060 0.406 0.060 0.6-0.007 0.28-0.093 0.506-0.393 0.506-0.68 0-0.38-0.486-0.72-1.039-0.72-0.2 0-0.2 0-0.313 0.586z"></path>
<path fill="rgb(255, 255, 255)" d="M20.198 34.573c0 0.080-0.333 1.179-0.446 1.479-0.027 0.067 0.107 0.087 0.546 0.087 0.526 0 0.58-0.013 0.533-0.12-0.020-0.060-0.153-0.433-0.286-0.833-0.22-0.646-0.346-0.873-0.346-0.613z"></path>
</svg>
