<?xml version="1.0" encoding="utf-8"?>
<!-- Generated by IcoMoon.io -->
<!DOCTYPE svg PUBLIC "-//W3C//DTD SVG 1.1//EN" "http://www.w3.org/Graphics/SVG/1.1/DTD/svg11.dtd">
<svg version="1.1" xmlns="http://www.w3.org/2000/svg" xmlns:xlink="http://www.w3.org/1999/xlink" width="40" height="40" viewBox="0 0 40 40">
<path fill="rgb(141, 198, 63)" d="M6.264 0.803h27.337v27.337h-27.337v-27.337z"></path>
<path fill="rgb(255, 255, 255)" d="M10.734 4.963h18.396v18.394h-18.396v-18.394z"></path>
<path fill="rgb(236, 0, 140)" d="M30.323 3.508c0 1.221-0.372 2.409-1.117 3.566l-0.115 0.172-6.512 10.183c-1.384 2.159-2.563 3.827-3.535 5.005s-1.66 1.768-2.060 1.768c-0.421 0-0.944-0.294-1.569-0.882s-1.029-1.195-1.212-1.82c-0.155-0.521-0.3-1.625-0.437-3.312s-0.205-3.515-0.205-5.484c0-1.073 0.302-2.065 0.906-2.976s1.271-1.367 2.002-1.367c0.695 0 1.11 0.942 1.243 2.826 0.014 0.219 0.024 0.38 0.032 0.484 0.112 1.447 0.242 2.457 0.39 3.030s0.348 0.859 0.601 0.859c0.105 0 0.302-0.169 0.59-0.508s0.632-0.799 1.033-1.382l6.691-9.842c0.562-0.836 1.064-1.469 1.506-1.898s0.819-0.643 1.128-0.643c0.232 0 0.396 0.131 0.495 0.391s0.148 0.699 0.148 1.314v0.517z"></path>
<path fill="rgb(255, 255, 255)" d="M7.498 30.081l0.53 2.873 0.291-2.269c0.063-0.511 0.485-0.787 0.935-0.615 0.228 0.092 0.388 0.299 0.428 0.615l0.291 2.269 0.524-2.873h0.855l-0.661 3.608c-0.051 0.276-0.234 0.488-0.479 0.563-0.428 0.132-0.844-0.138-0.901-0.563l-0.342-2.453-0.279 2.453c-0.051 0.414-0.479 0.695-0.906 0.563-0.245-0.075-0.428-0.287-0.479-0.563l-0.662-3.608h0.855z"></path>
<path fill="rgb(255, 255, 255)" d="M12.082 30.978c0-0.063 0.006-0.126 0.017-0.184 0.074-0.471 0.359-0.712 0.838-0.712h1.825v0.891h-1.591c-0.023 0.006-0.040 0.006-0.057 0.017-0.091 0.035-0.148 0.121-0.148 0.247v0.46h1.796v0.891h-1.796v0.46c0 0.195 0.063 0.264 0.228 0.281h1.568v0.891h-1.699c-0.661 0-0.981-0.31-0.981-0.862v-2.378z"></path>
<path fill="rgb(255, 255, 255)" d="M17.778 30.081c0.319 0 0.525 0.098 0.667 0.276 0.114 0.155 0.148 0.281 0.148 0.655v0.339c0 0.442-0.12 0.661-0.354 0.787 0.194 0.086 0.314 0.259 0.354 0.58 0.006 0.052 0.011 0.103 0.011 0.155v0.419c0 0.057-0.006 0.115-0.011 0.172-0.068 0.494-0.359 0.753-0.855 0.753h-2.081v-4.137h2.121zM16.541 31.696h0.975c0.137-0.017 0.205-0.092 0.205-0.224v-0.276c0-0.086-0.034-0.144-0.097-0.189-0.051-0.029-0.080-0.035-0.108-0.035h-0.975v0.724zM16.541 33.327h0.924c0.017 0 0.029 0 0.046 0 0.143-0.017 0.2-0.080 0.2-0.23v-0.27c0-0.149-0.063-0.218-0.216-0.241-0.017 0-0.034 0-0.051 0h-0.901v0.741z"></path>
<path fill="rgb(255, 255, 255)" d="M19.523 30.69c0.108-0.425 0.353-0.609 0.815-0.609h1.796v0.891h-1.488l-0.068 0.006c-0.086 0.011-0.143 0.046-0.177 0.115-0.011 0.029-0.017 0.058-0.017 0.086v0.276c0 0.017 0 0.040 0.006 0.057 0.023 0.121 0.074 0.161 0.222 0.178 0.017 0.006 0.040 0.006 0.057 0.006h0.638c0.451 0 0.724 0.212 0.81 0.644 0.011 0.057 0.017 0.115 0.017 0.172v0.833c0 0.488-0.262 0.798-0.735 0.862-0.051 0.006-0.097 0.011-0.148 0.011h-1.745v-0.891h1.54c0.017-0.006 0.034-0.011 0.051-0.017 0.114-0.046 0.154-0.103 0.154-0.224v-0.299c0-0.115-0.057-0.184-0.188-0.201h-0.735c-0.291 0-0.524-0.126-0.69-0.368-0.086-0.132-0.137-0.287-0.137-0.442v-0.879c0-0.069 0.006-0.138 0.023-0.207z"></path>
<path fill="rgb(255, 255, 255)" d="M23.029 30.081h0.884v1.614h1.243v-1.614h0.884v4.137h-0.884v-1.632h-1.243v1.632h-0.884v-4.137z"></path>
<path fill="rgb(255, 255, 255)" d="M26.997 30.754c0.097-0.471 0.359-0.672 0.906-0.672h1.043c0.622 0 0.918 0.293 0.918 0.891v2.355c0.006 0.592-0.302 0.891-0.924 0.891h-1.038c-0.564 0-0.81-0.19-0.901-0.672-0.011-0.069-0.017-0.144-0.023-0.213l-0.006-2.361c0-0.075 0.006-0.144 0.023-0.218zM27.864 33.040c0 0.218 0.074 0.287 0.291 0.287h0.542c0.217 0 0.291-0.063 0.291-0.258v-1.81c0-0.218-0.074-0.287-0.291-0.287h-0.542c-0.222 0-0.296 0.069-0.296 0.287l0.006 1.781z"></path>
<path fill="rgb(255, 255, 255)" d="M30.8 30.081h2.052c0.297 0 0.485 0.075 0.644 0.23 0.154 0.149 0.239 0.345 0.239 0.592v1.017c0 0.264-0.080 0.454-0.245 0.609-0.154 0.138-0.314 0.201-0.57 0.201h-1.237v1.488h-0.884v-4.137zM32.545 31.816c0.251 0 0.308-0.052 0.308-0.224v-0.368c0-0.017 0-0.029 0-0.040-0.017-0.144-0.063-0.19-0.228-0.213-0.017 0-0.034 0-0.051 0h-0.89v0.845h0.861z"></path>
<path fill="rgb(255, 255, 255)" d="M6.834 36.059h0.444v3.099h-0.444v-3.099zM8.44 36.059h0.572l-1.222 1.507 1.29 1.597-0.581-0.004-1.008-1.253c-0.013-0.017-0.030-0.039-0.043-0.056-0.171-0.241-0.184-0.344-0.056-0.499l0.12-0.151 0.927-1.141z"></path>
<path fill="rgb(255, 255, 255)" d="M10.081 36.834c0-0.525 0.273-0.775 0.897-0.775h1.123v0.448h-1.299c-0.047 0-0.098 0.017-0.145 0.052-0.060 0.039-0.103 0.108-0.124 0.207-0.004 0.026-0.009 0.052-0.009 0.082v0.525h1.572v0.452h-1.572v0.607c0 0.035 0.009 0.060 0.022 0.090 0.077 0.159 0.154 0.189 0.47 0.189h1.072v0.448h-1.192c-0.525 0-0.816-0.293-0.816-0.831v-1.494z"></path>
<path fill="rgb(255, 255, 255)" d="M13.348 36.059h0.444v2.281c0 0.267 0.098 0.37 0.338 0.37h0.628c0.239 0 0.333-0.099 0.333-0.344v-2.307h0.449v2.337c0 0.34-0.162 0.585-0.449 0.706-0.090 0.039-0.179 0.056-0.265 0.056h-0.765c-0.085 0-0.175-0.017-0.269-0.056-0.282-0.116-0.444-0.366-0.444-0.706v-2.337z"></path>
<path fill="rgb(255, 255, 255)" d="M16.847 36.059h1.555c0.154 0 0.282 0.043 0.389 0.12 0.197 0.151 0.261 0.293 0.261 0.525v0.534c0 0.112-0.034 0.22-0.098 0.319-0.12 0.181-0.308 0.284-0.487 0.284h-0.525l1.132 1.317h-0.59l-1.132-1.322c-0.034-0.034-0.056-0.12-0.026-0.228 0.026-0.103 0.115-0.185 0.244-0.211 0.026-0.004 0.051-0.004 0.077-0.004h0.671c0.013 0 0.030-0.004 0.043-0.004 0.167-0.030 0.244-0.12 0.244-0.25v-0.344c0-0.017 0-0.039-0.004-0.056-0.021-0.133-0.090-0.207-0.222-0.228-0.013 0-0.030-0.004-0.047-0.004h-1.038v2.652h-0.444v-3.099z"></path>
<path fill="rgb(255, 255, 255)" d="M20.273 36.511c0-0.258 0.068-0.383 0.209-0.448 0.338-0.159 0.568-0.022 0.666 0.323l0.654 2.281 0.675-2.281c0.103-0.344 0.329-0.482 0.666-0.323 0.141 0.064 0.209 0.189 0.209 0.448v2.647h-0.444v-2.652l-0.688 2.311c-0.081 0.28-0.188 0.379-0.406 0.379s-0.329-0.099-0.41-0.379l-0.688-2.311v2.652h-0.444v-2.647z"></path>
<path fill="rgb(255, 255, 255)" d="M24.66 36.834c0-0.525 0.273-0.775 0.897-0.775h1.123v0.448h-1.299c-0.047 0-0.098 0.017-0.145 0.052-0.060 0.039-0.103 0.108-0.124 0.207-0.004 0.026-0.009 0.052-0.009 0.082v0.525h1.572v0.452h-1.572v0.607c0 0.035 0.009 0.060 0.022 0.090 0.077 0.159 0.154 0.189 0.47 0.189h1.072v0.448h-1.192c-0.525 0-0.816-0.293-0.816-0.831v-1.494z"></path>
<path fill="rgb(255, 255, 255)" d="M27.928 36.059h1.555c0.154 0 0.282 0.043 0.389 0.12 0.197 0.151 0.26 0.293 0.26 0.525v0.534c0 0.112-0.034 0.22-0.098 0.319-0.12 0.181-0.308 0.284-0.487 0.284h-0.525l1.132 1.317h-0.589l-1.132-1.322c-0.034-0.034-0.055-0.12-0.026-0.228 0.026-0.103 0.115-0.185 0.243-0.211 0.026-0.004 0.051-0.004 0.077-0.004h0.671c0.013 0 0.030-0.004 0.043-0.004 0.167-0.030 0.244-0.12 0.244-0.25v-0.344c0-0.017 0-0.039-0.004-0.056-0.021-0.133-0.090-0.207-0.222-0.228-0.013 0-0.030-0.004-0.047-0.004h-1.038v2.652h-0.444v-3.099z"></path>
<path fill="rgb(255, 255, 255)" d="M31.354 36.059h0.444v3.099h-0.444v-3.099zM32.96 36.059h0.572l-1.222 1.507 1.29 1.597-0.581-0.004-1.008-1.253c-0.013-0.017-0.030-0.039-0.043-0.056-0.171-0.241-0.184-0.344-0.056-0.499l0.12-0.151 0.927-1.141z"></path>
</svg>
