<?xml version="1.0" encoding="utf-8"?>
<!-- Generated by IcoMoon.io -->
<!DOCTYPE svg PUBLIC "-//W3C//DTD SVG 1.1//EN" "http://www.w3.org/Graphics/SVG/1.1/DTD/svg11.dtd">
<svg version="1.1" xmlns="http://www.w3.org/2000/svg" xmlns:xlink="http://www.w3.org/1999/xlink" width="40" height="40" viewBox="0 0 40 40">
<path fill="rgb(255, 255, 255)" d="M19.020 5.752c-1.222 0.054-2.507 0.186-3.523 0.368-2.993 0.535-6.142 1.835-8.336 3.429-2.095 1.526-3.474 2.787-4.666 4.268-0.638 0.79-1.163 1.59-1.163 1.761 0 0.152 0.147 0.334 0.309 0.373 0.059 0.015 1.148 0.025 2.414 0.015 2.301-0.015 2.306-0.015 2.6-0.132 0.353-0.142 0.657-0.442 1.423-1.379 0.618-0.751 1.845-2.031 2.458-2.561 1.585-1.359 3.488-2.355 5.716-2.983 4.195-1.187 8.635-0.883 12.506 0.859 1.030 0.461 1.791 0.927 2.723 1.668 1.379 1.094 2.482 2.296 3.233 3.523 0.132 0.206 0.343 0.476 0.476 0.594 0.397 0.353 0.54 0.388 1.81 0.407 1.207 0.020 1.295 0.005 1.418-0.25 0.059-0.128 0.054-0.167-0.044-0.368-0.196-0.402-0.819-1.3-1.339-1.923-1.437-1.712-3.547-3.449-5.946-4.887-0.932-0.559-1.536-0.863-2.404-1.207-2.061-0.809-4.332-1.32-6.721-1.501-0.736-0.059-2.37-0.098-2.944-0.074z"></path>
<path fill="rgb(255, 255, 255)" d="M18.971 10.403c-2.178 0.358-4.023 1.702-4.999 3.64-0.785 1.56-0.932 3.42-0.393 5.078 0.756 2.335 2.654 4.023 5.122 4.543 0.589 0.123 1.967 0.123 2.551 0 1.31-0.28 2.409-0.849 3.341-1.742 0.736-0.702 1.334-1.594 1.683-2.532 0.157-0.417 0.157-0.496 0.005-0.648l-0.128-0.128-1.138 0.020c-1.109 0.015-1.143 0.020-1.413 0.142-0.186 0.088-0.343 0.216-0.515 0.417-0.132 0.157-0.412 0.461-0.618 0.667-0.319 0.319-0.466 0.422-0.883 0.623-1.462 0.706-3.111 0.476-4.293-0.603-0.172-0.157-0.299-0.304-0.275-0.324 0.020-0.020 2.026-0.927 4.455-2.012 2.429-1.089 4.465-2.012 4.528-2.051s0.157-0.162 0.216-0.27c0.137-0.27 0.098-0.476-0.182-1.060-0.638-1.315-1.683-2.409-2.934-3.052-1.035-0.535-1.796-0.726-2.954-0.756-0.51-0.015-0.922 0-1.178 0.044zM20.747 13.405c0.667 0.147 1.339 0.525 1.825 1.020 0.265 0.27 0.265 0.27 0.147 0.319-0.064 0.025-1.541 0.692-3.282 1.477-1.742 0.79-3.204 1.442-3.248 1.457-0.078 0.025-0.088-0.025-0.088-0.535 0-0.402 0.029-0.672 0.098-0.952 0.525-2.041 2.502-3.253 4.548-2.787z"></path>
<path fill="rgb(255, 255, 255)" d="M1.476 17.742c-0.044 0.025-0.108 0.113-0.142 0.196-0.054 0.132-0.049 0.177 0.064 0.388 0.216 0.417 0.677 1.089 1.182 1.717 1.418 1.766 3.68 3.635 6.216 5.142 1.133 0.677 1.972 1.055 3.346 1.511 3.321 1.109 7.183 1.462 10.926 1.001 3.047-0.373 6.27-1.501 8.713-3.052 0.599-0.378 0.795-0.52 1.796-1.29 1.855-1.428 3.429-3.047 4.484-4.607 0.392-0.579 0.427-0.711 0.26-0.927l-0.103-0.132-4.931 0.029-0.334 0.172c-0.255 0.128-0.402 0.25-0.603 0.491-1.751 2.105-2.787 3.16-4.008 4.072-0.731 0.545-2.178 1.325-3.214 1.732-3.699 1.452-7.938 1.653-11.775 0.549-0.962-0.275-1.805-0.603-2.723-1.050-1.349-0.662-2.37-1.393-3.596-2.576-0.785-0.76-1.281-1.354-1.855-2.223-0.76-1.153-0.849-1.192-2.487-1.192-0.628 0-1.173 0.025-1.217 0.049z"></path>
<path fill="rgb(255, 255, 255)" d="M24.932 31.97v2.208h0.54v-1.423h0.388l0.496 0.711 0.5 0.711h0.628l-0.554-0.775c-0.304-0.422-0.569-0.8-0.594-0.834-0.025-0.039 0.132-0.289 0.456-0.721 0.275-0.363 0.496-0.672 0.496-0.687s-0.137-0.025-0.304-0.015l-0.309 0.015-0.412 0.599c-0.407 0.594-0.422 0.603-0.603 0.603h-0.186v-2.6h-0.54v2.208z"></path>
<path fill="rgb(255, 255, 255)" d="M31.202 30.729l-0.015 0.383-0.231 0.015c-0.231 0.015-0.236 0.020-0.236 0.182s0.005 0.167 0.236 0.182l0.231 0.015 0.025 1.153c0.015 0.741 0.044 1.187 0.083 1.251 0.152 0.27 0.481 0.397 0.814 0.319 0.103-0.020 0.196-0.049 0.206-0.059 0.015-0.010 0.010-0.098-0.005-0.196-0.029-0.167-0.039-0.177-0.186-0.152-0.108 0.015-0.191-0.005-0.275-0.074l-0.123-0.098v-2.144l0.564-0.029v-0.334l-0.564-0.029-0.015-0.383-0.015-0.378h-0.481l-0.015 0.378z"></path>
<path fill="rgb(255, 255, 255)" d="M8.423 31.087c-0.388 0.059-0.76 0.353-0.967 0.78-0.098 0.196-0.113 0.299-0.113 0.814 0 0.545 0.010 0.608 0.132 0.839 0.294 0.559 0.844 0.819 1.506 0.711 0.28-0.044 0.716-0.221 0.77-0.309 0.029-0.044-0.132-0.334-0.186-0.334-0.020 0-0.118 0.049-0.221 0.113-0.26 0.152-0.903 0.157-1.104 0.010-0.182-0.133-0.383-0.54-0.383-0.77v-0.186h2.012v-0.27c0-0.589-0.211-1.050-0.579-1.266-0.186-0.108-0.594-0.172-0.868-0.132zM8.967 31.558c0.201 0.098 0.363 0.378 0.363 0.633v0.172h-1.482l0.034-0.162c0.054-0.24 0.147-0.397 0.343-0.569 0.206-0.177 0.466-0.201 0.741-0.074z"></path>
<path fill="rgb(255, 255, 255)" d="M13.996 31.092c-0.236 0.044-0.579 0.25-0.628 0.368-0.039 0.108-0.113-0.010-0.113-0.191 0-0.128-0.010-0.132-0.245-0.132h-0.245v3.042h0.54v-2.316l0.162-0.162c0.275-0.275 0.736-0.289 0.981-0.034 0.186 0.191 0.231 0.505 0.231 1.585v0.927h0.481l0.020-1.065c0.015-1.197 0.039-1.295 0.388-1.526 0.201-0.137 0.52-0.128 0.721 0.025 0.216 0.162 0.245 0.343 0.25 1.496l0.005 1.070h0.549l-0.020-1.143c-0.015-0.77-0.044-1.192-0.088-1.31-0.162-0.442-0.461-0.648-0.937-0.648-0.334 0-0.653 0.157-0.834 0.407-0.098 0.142-0.113 0.147-0.157 0.064-0.201-0.378-0.584-0.54-1.060-0.456z"></path>
<path fill="rgb(255, 255, 255)" d="M18.765 31.092c-0.471 0.064-0.824 0.348-0.883 0.711-0.025 0.157-0.020 0.167 0.113 0.167 0.078 0 0.191 0.015 0.25 0.029 0.088 0.025 0.123 0 0.177-0.132 0.039-0.093 0.118-0.211 0.177-0.26 0.128-0.118 0.579-0.167 0.736-0.078 0.182 0.093 0.299 0.343 0.299 0.623v0.26h-0.505c-0.618 0-0.971 0.093-1.192 0.314-0.383 0.383-0.314 1.079 0.128 1.369 0.442 0.285 1.398 0.157 1.771-0.24l0.108-0.113 0.172 0.152c0.299 0.26 0.569 0.348 1.040 0.348 0.324 0 0.476-0.025 0.672-0.113 0.348-0.147 0.378-0.196 0.28-0.402l-0.078-0.167-0.27 0.137c-0.309 0.157-0.736 0.186-1.011 0.069-0.299-0.123-0.525-0.5-0.525-0.878v-0.132h2.075l-0.034-0.353c-0.044-0.5-0.118-0.702-0.334-0.942-0.417-0.476-1.187-0.52-1.742-0.098l-0.167 0.128-0.162-0.147c-0.26-0.231-0.638-0.314-1.094-0.25zM21.503 31.666c0.137 0.157 0.26 0.491 0.231 0.638-0.015 0.074-0.103 0.083-0.751 0.083h-0.736l0.015-0.162c0.015-0.24 0.186-0.54 0.368-0.653 0.123-0.078 0.221-0.093 0.446-0.078 0.25 0.015 0.309 0.039 0.427 0.172zM19.633 33.089c0 0.299-0.015 0.348-0.132 0.466-0.388 0.368-1.065 0.373-1.231 0.010-0.078-0.172-0.074-0.304 0.020-0.461 0.152-0.255 0.378-0.334 0.991-0.343l0.353-0.005v0.334z"></path>
<path fill="rgb(255, 255, 255)" d="M24.064 31.087c-0.206 0.049-0.388 0.167-0.486 0.319-0.113 0.172-0.157 0.152-0.177-0.064-0.015-0.182-0.015-0.182-0.245-0.196l-0.236-0.015v3.047h0.54v-2.257l0.142-0.157c0.118-0.132 0.177-0.157 0.442-0.177 0.162-0.010 0.299-0.034 0.299-0.054 0.005-0.015 0.025-0.123 0.044-0.24 0.025-0.113 0.025-0.206 0-0.206-0.020 0-0.064-0.010-0.103-0.020-0.034-0.010-0.137 0-0.221 0.020z"></path>
<path fill="rgb(255, 255, 255)" d="M28.872 31.092c-0.275 0.049-0.446 0.147-0.657 0.373-0.304 0.314-0.402 0.569-0.427 1.074-0.025 0.54 0.064 0.898 0.299 1.207 0.304 0.397 0.844 0.584 1.418 0.481 0.27-0.049 0.726-0.25 0.726-0.324 0-0.039-0.147-0.314-0.167-0.314-0.010 0-0.137 0.054-0.285 0.123-0.299 0.142-0.746 0.167-0.962 0.054-0.28-0.147-0.5-0.53-0.5-0.868v-0.142h2.012v-0.309c0-0.947-0.608-1.511-1.457-1.354zM29.475 31.573c0.182 0.108 0.314 0.373 0.314 0.613v0.177h-1.472l0.029-0.137c0.059-0.245 0.177-0.451 0.343-0.599 0.137-0.118 0.216-0.147 0.402-0.147 0.137 0 0.289 0.039 0.383 0.093z"></path>
<path fill="rgb(255, 255, 255)" d="M10.606 32.632v0.172h1.472v-0.343h-1.472v0.172z"></path>
</svg>
