<?xml version="1.0" encoding="utf-8"?>
<!-- Generated by IcoMoon.io -->
<!DOCTYPE svg PUBLIC "-//W3C//DTD SVG 1.1//EN" "http://www.w3.org/Graphics/SVG/1.1/DTD/svg11.dtd">
<svg version="1.1" xmlns="http://www.w3.org/2000/svg" xmlns:xlink="http://www.w3.org/1999/xlink" width="40" height="40" viewBox="0 0 40 40">
<path fill="rgb(255, 255, 255)" d="M8.749 30.117v1.25l-0.199-0.18c-0.23-0.207-0.441-0.311-0.797-0.387-0.314-0.065-0.529-0.065-0.847 0-0.786 0.169-1.361 0.736-1.568 1.541-0.096 0.368-0.104 0.958-0.015 1.296 0.242 0.943 0.962 1.518 1.901 1.518 0.621 0 0.985-0.146 1.384-0.548l0.257-0.265v0.249c0 0.134 0.012 0.303 0.023 0.368l0.027 0.119h0.728l-0.027-0.234c-0.012-0.13-0.023-1.53-0.023-3.105v-2.871h-0.843v1.25zM8.001 31.439c0.245 0.092 0.537 0.357 0.652 0.59 0.065 0.13 0.077 0.249 0.088 0.836 0.015 0.771-0.015 0.912-0.23 1.196-0.176 0.23-0.429 0.391-0.736 0.468-0.544 0.134-1.077-0.069-1.392-0.521-0.207-0.299-0.245-0.433-0.268-0.92-0.031-0.64 0.088-1.012 0.441-1.372 0.245-0.253 0.498-0.353 0.916-0.353 0.23-0.004 0.372 0.019 0.529 0.077z"></path>
<path fill="rgb(255, 255, 255)" d="M10.992 29.22c-0.042 0.023-0.123 0.084-0.18 0.138-0.088 0.081-0.107 0.13-0.107 0.287 0 0.161 0.019 0.207 0.13 0.318 0.115 0.115 0.153 0.13 0.326 0.13 0.341 0 0.541-0.161 0.541-0.433 0-0.081-0.027-0.196-0.061-0.257-0.115-0.192-0.456-0.291-0.648-0.184z"></path>
<path fill="rgb(255, 255, 255)" d="M18.076 29.235c-0.192 0.096-0.257 0.234-0.245 0.506 0.004 0.050 0.061 0.149 0.134 0.222 0.115 0.115 0.153 0.13 0.326 0.13 0.345 0 0.541-0.161 0.541-0.445 0-0.36-0.406-0.587-0.755-0.414z"></path>
<path fill="rgb(255, 255, 255)" d="M33.398 29.787c-0.172 0.054-0.613 0.169-0.813 0.211l-0.107 0.019v0.805h-0.652v0.763l0.633 0.023 0.023 1.227c0.031 1.43 0.042 1.522 0.291 1.867 0.1 0.138 0.199 0.215 0.387 0.307 0.253 0.127 0.265 0.127 0.778 0.123 0.353-0.004 0.564-0.023 0.648-0.057l0.119-0.054-0.019-0.364c-0.008-0.199-0.019-0.364-0.019-0.368-0.004 0-0.157-0.004-0.341 0-0.456 0.004-0.564-0.069-0.694-0.479-0.046-0.142-0.061-2.047-0.019-2.158 0.019-0.054 0.107-0.061 0.575-0.061h0.552v-0.767h-0.571c-0.433 0-0.571-0.011-0.567-0.050 0-0.023-0.004-0.265-0.004-0.537-0.008-0.518-0.008-0.514-0.199-0.449z"></path>
<path fill="rgb(255, 255, 255)" d="M14.154 30.803c-0.755 0.169-1.323 0.686-1.556 1.418-0.127 0.395-0.146 1.020-0.038 1.38 0.199 0.671 0.671 1.173 1.28 1.361 0.345 0.107 0.92 0.107 1.246-0.004 0.295-0.096 0.556-0.261 0.732-0.46l0.138-0.149v0.41c0 0.644-0.107 0.935-0.449 1.238-0.249 0.219-0.556 0.307-1.081 0.307-0.449 0-0.866-0.084-1.154-0.23-0.088-0.046-0.165-0.077-0.172-0.069-0.034 0.034-0.203 0.548-0.188 0.571 0.027 0.046 0.426 0.188 0.721 0.253 0.414 0.096 1.257 0.084 1.645-0.019 0.583-0.157 1.027-0.479 1.238-0.897 0.054-0.103 0.134-0.322 0.176-0.483 0.077-0.272 0.081-0.414 0.096-1.829 0.008-0.843 0.015-1.806 0.023-2.139l0.008-0.602h-0.698l-0.027 0.119c-0.012 0.065-0.023 0.211-0.023 0.318v0.196l-0.165-0.176c-0.207-0.234-0.456-0.395-0.717-0.472-0.303-0.092-0.74-0.107-1.035-0.042zM15.251 31.432c0.249 0.111 0.491 0.357 0.606 0.621 0.104 0.226 0.107 0.242 0.092 0.909-0.012 0.667-0.012 0.682-0.123 0.882-0.138 0.249-0.318 0.41-0.598 0.541-0.303 0.138-0.771 0.138-1.077-0.004-0.61-0.28-0.912-0.924-0.809-1.706 0.119-0.874 0.69-1.392 1.48-1.334 0.146 0.011 0.337 0.054 0.429 0.092z"></path>
<path fill="rgb(255, 255, 255)" d="M21.514 30.788c-0.261 0.069-0.671 0.203-0.709 0.23-0.019 0.015-0.1 0.061-0.18 0.104-0.426 0.238-0.778 0.679-0.932 1.165-0.111 0.353-0.13 0.951-0.042 1.284 0.199 0.744 0.748 1.277 1.537 1.495 0.284 0.077 1.526 0.092 1.599 0.019 0.027-0.027 0.088-0.046 0.142-0.046 0.050 0 0.153-0.019 0.222-0.046 0.127-0.046 0.127-0.050 0.104-0.222-0.015-0.096-0.038-0.203-0.057-0.238s-0.034-0.127-0.034-0.207c0-0.127-0.008-0.138-0.084-0.119-0.613 0.149-0.92 0.169-1.277 0.084-0.226-0.050-0.583-0.265-0.74-0.437-0.111-0.127-0.238-0.372-0.211-0.402 0.015-0.012 0.008-0.023-0.012-0.023-0.084 0-0.092-0.705-0.011-0.981 0.031-0.092 0.065-0.169 0.081-0.169s0.031-0.023 0.031-0.054c0-0.061 0.314-0.406 0.372-0.406 0.023 0 0.050-0.015 0.058-0.031s0.1-0.073 0.203-0.123c0.169-0.081 0.249-0.092 0.652-0.092 0.288-0.004 0.529 0.015 0.644 0.050 0.107 0.031 0.199 0.038 0.219 0.019s0.061-0.157 0.096-0.303c0.038-0.15 0.081-0.299 0.1-0.334 0.019-0.038 0.034-0.073 0.034-0.084 0-0.015-0.245-0.081-0.46-0.123-0.218-0.042-1.196-0.050-1.342-0.012z"></path>
<path fill="rgb(255, 255, 255)" d="M25.256 30.826c-0.912 0.257-1.487 0.985-1.579 2.013-0.042 0.452 0.084 0.993 0.318 1.369 0.291 0.468 0.87 0.809 1.545 0.909 0.23 0.034 1.369 0.012 1.434-0.027 0.023-0.015 0.107-0.038 0.196-0.054 0.23-0.042 0.376-0.088 0.46-0.138 0.069-0.038 0.069-0.057 0.027-0.173-0.023-0.073-0.046-0.169-0.046-0.215s-0.015-0.084-0.038-0.084c-0.019 0-0.038-0.054-0.038-0.119 0-0.111-0.008-0.119-0.104-0.092-0.682 0.18-1.748 0.184-1.944 0.012-0.023-0.015-0.069-0.031-0.107-0.031s-0.069-0.019-0.069-0.038c0-0.023-0.027-0.038-0.058-0.038s-0.057-0.015-0.057-0.031c0-0.019-0.042-0.057-0.096-0.084s-0.088-0.057-0.077-0.069c0.008-0.008-0.004-0.038-0.031-0.069-0.027-0.027-0.061-0.073-0.084-0.1-0.061-0.077-0.134-0.314-0.134-0.426v-0.104h3.132l0.023-0.165c0.027-0.203-0.008-0.755-0.054-0.84-0.019-0.034-0.034-0.104-0.034-0.15 0-0.146-0.307-0.694-0.468-0.84-0.149-0.138-0.226-0.192-0.261-0.192-0.023 0-0.038-0.012-0.038-0.031 0-0.015-0.058-0.050-0.123-0.077-0.069-0.027-0.157-0.069-0.192-0.088-0.038-0.019-0.119-0.034-0.18-0.034-0.065 0-0.127-0.019-0.138-0.038-0.042-0.069-0.893-0.038-1.185 0.042zM26.226 31.497c0.341 0.111 0.587 0.433 0.64 0.836l0.027 0.176h-2.12v-0.096c0-0.242 0.395-0.824 0.56-0.824 0.031 0 0.054-0.015 0.054-0.031 0-0.050 0.238-0.111 0.452-0.119 0.111 0 0.288 0.023 0.387 0.058z"></path>
<path fill="rgb(255, 255, 255)" d="M30.577 30.861c-0.127 0.061-0.284 0.165-0.349 0.226-0.134 0.127-0.357 0.441-0.357 0.498 0 0.023-0.015 0.042-0.034 0.042-0.054 0-0.081-0.153-0.081-0.491v-0.314h-0.993l0.011 0.238c0.008 0.134 0.015 1.081 0.015 2.108l0.008 1.867 0.556 0.011c0.548 0.012 0.552 0.012 0.575-0.077 0.012-0.050 0.019-0.602 0.019-1.227-0.004-1.108 0.012-1.388 0.081-1.388 0.019 0 0.034-0.027 0.034-0.057 0-0.061 0.034-0.111 0.176-0.261 0.134-0.138 0.242-0.219 0.295-0.219 0.027 0 0.069-0.019 0.092-0.042s0.199-0.042 0.391-0.046c0.249-0.008 0.349-0.023 0.349-0.057 0.004-0.058 0.004-0.84 0-0.889 0-0.023-0.119-0.038-0.276-0.038-0.23 0-0.322 0.023-0.514 0.115z"></path>
<path fill="rgb(255, 255, 255)" d="M10.781 32.969v2.108h0.843v-4.217h-0.843v2.108z"></path>
<path fill="rgb(255, 255, 255)" d="M17.911 32.969v2.108h0.843v-4.217h-0.843v2.108z"></path>
<path fill="rgb(255, 255, 255)" d="M21.321 3.181c-1.756 0.424-2.652 0.754-4.195 1.556-1.556 0.801-3.689 2.298-5.232 3.677-0.695 0.625-0.766 0.648-1.273 0.436-0.625-0.283-0.848-0.896-0.742-2.039 0.047-0.471 0.141-0.955 0.2-1.072 0.071-0.118 0.106-0.424 0.082-0.66l-0.035-0.436-0.389 0.66c-0.931 1.626-1.461 3.406-1.685 5.786-0.13 1.296-0.13 1.662 0.035 2.781 0.377 2.51 1.756 5.657 3.123 7.141 0.247 0.259 0.601 0.672 0.79 0.896s0.66 0.778 1.061 1.226c0.955 1.072 0.966 1.096 0.695 1.461-0.412 0.554-1.167 0.848-2.133 0.837-0.471-0.012-0.884-0.071-0.919-0.118-0.035-0.059-0.212-0.106-0.401-0.106s-0.483-0.059-0.672-0.118l-0.33-0.118 0.295 0.224c0.389 0.306 2.039 1.12 2.769 1.367 1.744 0.589 3.241 0.801 5.185 0.731 1.497-0.047 1.732-0.071 2.71-0.342 0.86-0.224 1.261-0.365 2.204-0.79 0.306-0.141 0.613-0.247 0.684-0.247 0.059 0 0.118-0.059 0.118-0.118 0-0.071 0.106-0.118 0.224-0.118 0.13 0 0.247-0.035 0.271-0.094 0.024-0.047 0.283-0.212 0.589-0.365s0.66-0.377 0.79-0.495c0.13-0.13 0.271-0.224 0.295-0.224 0.071 0 0.448-0.33 1.249-1.072 0.247-0.224 0.672-0.601 0.943-0.825 0.283-0.224 0.684-0.577 0.896-0.778 0.212-0.212 0.471-0.389 0.577-0.389 0.2 0 0.66 0.684 0.896 1.355 0.094 0.283 0.165 0.955 0.165 1.709 0 0.684 0.012 1.131 0.047 1.002 0.024-0.13 0.082-0.259 0.13-0.295 0.141-0.094 0.719-1.296 0.625-1.296-0.059 0-0.035-0.047 0.024-0.094 0.071-0.047 0.189-0.271 0.271-0.495 0.177-0.46 0.189-0.495 0.306-1.002 0.047-0.2 0.13-0.542 0.189-0.766 0.283-1.096 0.389-3.901 0.189-5.362-0.082-0.613-0.483-1.944-0.943-3.064-0.189-0.483-0.896-1.697-1.025-1.779-0.059-0.035-0.082-0.106-0.047-0.165s-0.035-0.177-0.141-0.259c-0.118-0.082-0.224-0.224-0.247-0.306-0.012-0.082-0.165-0.295-0.318-0.471-0.165-0.177-0.295-0.354-0.295-0.401s-0.13-0.212-0.295-0.377c-0.165-0.165-0.295-0.33-0.283-0.365 0-0.047-0.165-0.295-0.389-0.554-0.212-0.259-0.436-0.566-0.495-0.672s-0.247-0.318-0.412-0.483-0.377-0.436-0.471-0.625c-0.094-0.177-0.212-0.318-0.271-0.318-0.377 0 0.212-0.707 0.884-1.061 0.401-0.2 2.663-0.212 3.182-0.012 0.177 0.071 0.318 0.082 0.318 0.024 0-0.047-0.141-0.165-0.318-0.247-0.189-0.094-0.471-0.259-0.648-0.377-0.165-0.118-0.389-0.212-0.495-0.212s-0.189-0.059-0.189-0.118c0-0.071-0.082-0.118-0.177-0.118s-0.271-0.047-0.389-0.106c-0.106-0.059-0.33-0.153-0.495-0.224-0.165-0.059-0.448-0.177-0.625-0.247s-0.448-0.13-0.589-0.13c-0.153 0-0.318-0.047-0.377-0.106-0.071-0.059-0.354-0.141-0.648-0.189-0.872-0.142-3.912-0.165-4.419-0.047zM23.701 6.716c1.532 0.365 2.722 0.813 3.535 1.332 0.471 0.306 0.495 0.424 0.071 0.342-0.189-0.035-0.684-0.082-1.12-0.118-0.672-0.047-0.872-0.012-1.273 0.212-0.259 0.141-0.471 0.318-0.471 0.389s0.295 0.495 0.66 0.955c1.732 2.168 2.616 3.63 3.123 5.185 0.389 1.178 0.389 3.689 0 5.067-0.247 0.884-0.99 2.593-1.19 2.71-0.047 0.024-0.082-0.424-0.082-1.002-0.012-0.955-0.189-1.768-0.412-1.768-0.035 0-0.094-0.094-0.118-0.2-0.024-0.153-0.259 0-0.978 0.613-0.519 0.46-1.013 0.884-1.096 0.978-0.295 0.271-0.896 0.707-1.343 0.955-0.247 0.141-0.625 0.342-0.837 0.471-0.742 0.424-2.416 0.919-3.382 1.002-1.037 0.082-3.7-0.2-3.842-0.412-0.035-0.059-0.153-0.106-0.271-0.106-0.106 0-0.424-0.106-0.695-0.236-0.259-0.13-0.542-0.236-0.613-0.236-0.059 0-0.118-0.059-0.118-0.118 0-0.071-0.071-0.118-0.141-0.118-0.082 0-0.283-0.118-0.448-0.247l-0.295-0.236 0.53 0.059c0.295 0.035 0.801 0.106 1.131 0.141 0.672 0.082 1.237-0.13 1.461-0.554 0.106-0.2 0.082-0.283-0.2-0.554-0.189-0.177-0.519-0.554-0.742-0.848s-0.566-0.695-0.766-0.907c-0.542-0.566-0.672-0.742-0.566-0.742 0.047 0 0.035-0.047-0.035-0.094-0.177-0.106-1.108-1.968-1.108-2.192 0-0.094-0.047-0.189-0.106-0.212s-0.141-0.2-0.165-0.389c-0.035-0.2-0.141-0.625-0.236-0.966s-0.177-1.002-0.189-1.473c-0.012-0.742 0.047-1.237 0.412-3.099 0.035-0.189 0.141-0.495 0.236-0.672 0.094-0.189 0.141-0.33 0.106-0.33-0.047 0 0.012-0.082 0.106-0.189 0.106-0.094 0.165-0.236 0.13-0.295-0.047-0.059-0.024-0.106 0.035-0.106 0.118 0 0.448-0.707 0.401-0.86-0.012-0.047 0.059-0.082 0.153-0.082s0.177-0.059 0.177-0.141c0-0.071 0.035-0.094 0.071-0.059 0.047 0.047-0.012 0.542-0.13 1.12-0.224 1.108-0.2 1.473 0.153 1.886 0.318 0.365 0.483 0.33 1.061-0.212 0.271-0.259 0.542-0.471 0.589-0.471s0.165-0.106 0.259-0.236 0.236-0.236 0.306-0.236c0.082 0 0.165-0.047 0.189-0.094 0.047-0.13 1.461-1.084 1.614-1.084 0.059 0 0.13-0.035 0.153-0.094 0.035-0.082 1.402-0.766 1.921-0.966 0.236-0.094 0.79-0.236 1.65-0.448 0.672-0.165 2.086-0.165 2.734-0.012z"></path>
</svg>
